<svg version="1.1" id="Layer_1" xmlns="http://www.w3.org/2000/svg" xmlns:xlink="http://www.w3.org/1999/xlink" x="0px" y="0px"
	 width="100%" viewBox="0 0 295 294" enable-background="new 0 0 295 294" xml:space="preserve">
<path fill="#FFFFFF" opacity="1.000000" stroke="none" 
	d="
M194.000000,295.000000 
	C129.333344,295.000000 65.166687,295.000000 1.000026,295.000000 
	C1.000017,197.000031 1.000017,99.000061 1.000009,1.000065 
	C99.333282,1.000044 197.666565,1.000044 295.999878,1.000022 
	C295.999939,98.999939 295.999939,196.999878 295.999969,294.999908 
	C262.166656,295.000000 228.333328,295.000000 194.000000,295.000000 
M132.692749,145.644791 
	C132.692749,145.644791 132.621201,145.642471 131.876663,145.695328 
	C130.584473,146.797287 129.292267,147.899231 127.475372,149.122437 
	C127.196053,149.760971 126.916740,150.399490 126.062881,151.345215 
	C125.648010,152.093170 125.233139,152.841125 124.285530,153.829849 
	C124.497437,154.863892 124.709343,155.897919 124.446426,157.523697 
	C123.920990,158.669128 123.395554,159.814560 122.139725,161.010284 
	C116.500908,162.948059 110.944855,165.194260 105.199768,166.736069 
	C99.555794,168.250763 95.306786,164.838013 96.158096,159.507416 
	C96.744873,155.833237 97.967758,152.051071 99.796791,148.821472 
	C107.359306,135.468018 117.083366,123.853424 128.075668,113.083664 
	C137.710968,103.643410 148.328232,96.197105 160.987762,91.658585 
	C162.082260,91.266197 163.336151,91.318481 165.426682,91.045135 
	C162.361816,95.995934 159.953232,100.113266 157.318619,104.080482 
	C154.528656,108.281609 154.548508,112.009209 157.893753,113.854523 
	C162.189987,116.224457 164.277191,113.432434 165.988953,110.017067 
	C171.781219,98.460190 179.399719,88.929237 192.937729,86.135384 
	C196.197495,85.462662 196.376831,82.957748 195.778641,80.750031 
	C194.532181,76.149773 196.589157,73.239677 199.834000,70.555199 
	C200.970932,69.614594 201.960831,68.416985 202.769196,67.174889 
	C204.479706,64.546608 202.868347,60.370399 199.870941,60.421452 
	C197.208054,60.466805 193.747696,61.007141 192.087585,62.726959 
	C188.667740,66.269798 185.074524,67.932350 180.183105,68.690353 
	C159.823471,71.845398 142.136414,81.367966 126.021408,93.665283 
	C110.454651,105.544235 95.649529,118.359482 84.567390,134.852249 
	C78.275238,144.216385 72.329384,153.552063 71.643997,165.426361 
	C71.065620,175.446747 75.761574,182.935379 85.717392,182.949188 
	C93.041389,182.959366 100.544128,180.644836 107.650360,178.374481 
	C116.101357,175.674484 124.213249,171.913116 133.103500,168.359238 
	C132.777023,170.560333 132.470825,172.586090 132.176834,174.613617 
	C131.085419,182.140717 136.572144,187.147705 144.011505,185.434174 
	C147.726349,184.578506 151.521652,183.986206 155.140533,182.834686 
	C157.074081,182.219421 159.696014,180.982178 160.183868,179.446426 
	C160.612671,178.096664 158.913635,175.401413 157.420807,174.258682 
	C154.807602,172.258347 153.937180,170.177368 155.734940,167.023849 
	C156.961166,166.061874 158.187393,165.099899 159.829956,164.097610 
	C160.104614,163.926437 160.203690,163.683624 160.886078,163.166962 
	C161.579666,162.805771 162.273254,162.444595 163.807861,162.201035 
	C167.574539,165.567993 170.116180,164.186295 172.542435,160.343964 
	C174.084274,157.902237 176.159683,155.675186 178.406830,153.860916 
	C179.312439,153.129761 181.315872,153.758392 182.214798,154.243454 
	C180.019302,156.974487 177.823807,159.705536 175.628296,162.436584 
	C175.972198,162.779099 176.316101,163.121613 176.660004,163.464127 
	C179.791458,161.453293 182.894897,159.395477 186.089890,157.491287 
	C186.487701,157.254196 187.370880,157.831451 188.803970,158.398438 
	C188.478714,160.240677 188.153458,162.082932 187.614349,165.136429 
	C191.697021,163.316986 194.750580,161.956177 197.774597,160.608521 
	C198.824677,162.928894 199.838287,165.168671 200.661209,166.987061 
	C204.070038,159.914764 207.343735,153.122803 210.617447,146.330841 
	C207.972336,146.487152 206.140030,148.156891 204.853958,147.808746 
	C200.246887,146.561615 197.720566,149.664627 194.812164,151.902161 
	C192.384155,153.770111 190.246399,156.015335 187.250916,157.895203 
	C187.273911,156.366852 186.907822,154.695450 187.405502,153.341599 
	C188.287491,150.942276 189.694183,148.735855 191.196487,145.841507 
	C187.229584,146.331024 184.572479,146.658905 181.836411,146.252960 
	C182.862503,144.970642 183.715286,143.482925 184.946671,142.443939 
	C188.876556,139.128082 192.947037,135.978851 196.963211,132.765274 
	C196.676910,132.384506 196.390594,132.003723 196.104279,131.622955 
	C194.748001,132.342133 192.735947,134.024445 192.143860,133.621307 
	C188.770935,131.324722 186.984177,134.059570 185.609070,135.798492 
	C180.199509,142.639359 175.328232,149.908646 169.856857,156.696228 
	C168.239578,158.702545 165.306076,159.647873 162.389053,160.777267 
	C162.022812,160.555923 161.656586,160.334595 161.854568,159.557022 
	C162.088913,158.804947 162.323257,158.052887 163.051010,156.779343 
	C163.448410,155.921158 163.845810,155.062973 164.758957,154.565430 
	C165.575729,154.404999 166.392487,154.244568 167.770752,153.681259 
	C168.959915,150.761627 170.149078,147.841995 171.815933,144.507034 
	C174.860107,140.824387 177.769287,137.018692 180.984100,133.491592 
	C184.647186,129.472717 184.091141,125.917900 179.020996,124.182579 
	C172.170563,121.837929 159.104935,123.576004 155.272079,133.075104 
	C153.142776,138.352234 148.446869,142.593735 144.189774,147.242981 
	C141.443451,149.490509 138.697128,151.738037 135.572495,154.460876 
	C135.373123,154.425415 135.173752,154.389954 134.252716,154.051849 
	C130.863174,156.564667 130.959518,154.052063 131.246567,151.390945 
	C131.567841,150.914383 131.889130,150.437820 132.880264,149.565536 
	C133.210510,148.884460 133.540741,148.203384 134.244492,147.076508 
	C134.273056,146.950378 134.348328,146.812668 134.320511,146.700531 
	C134.262344,146.466064 134.149826,146.245102 134.294525,145.753510 
	C133.739349,145.701691 133.184158,145.649872 132.692749,145.644791 
M218.605682,155.188431 
	C219.625153,155.140472 220.644638,155.092514 221.664108,155.044540 
	C221.474670,155.942993 221.535004,157.017197 221.049438,157.707275 
	C219.527802,159.869797 217.800430,161.887543 216.004471,164.147995 
	C224.256378,164.338760 228.860611,158.615768 228.377335,149.134003 
	C225.567642,149.643723 222.775681,150.150208 220.625732,150.087082 
	C221.244125,149.340103 221.862518,148.593109 222.864532,147.382736 
	C213.612717,148.630157 206.809814,157.447784 208.728195,166.759476 
	C212.217514,162.634964 215.090302,159.239243 218.605682,155.188431 
z"/>
<path fill="#050505" opacity="1.000000" stroke="none" 
	d="
M133.870987,147.522308 
	C133.540741,148.203384 133.210510,148.884460 132.315613,149.837296 
	C131.473221,150.652222 131.195480,151.195389 130.917740,151.738556 
	C130.959518,154.052063 130.863174,156.564667 134.601212,154.539856 
	C135.513718,157.014328 130.811172,159.045654 135.000305,161.000610 
	C135.000000,161.000000 135.000610,161.000610 134.981842,161.317017 
	C134.636337,162.406906 134.309586,163.180389 133.989594,163.978058 
	C133.996353,164.002258 133.960709,163.966614 133.725830,163.809143 
	C132.997910,163.098770 132.504868,162.545837 132.000259,161.667725 
	C130.981018,160.953964 129.973343,160.565414 128.965668,160.176849 
	C129.318985,161.115234 129.672318,162.053604 129.902802,163.254242 
	C129.526932,164.031326 129.273895,164.546143 128.860977,165.364182 
	C125.911781,167.108154 123.225441,168.816010 120.313469,169.938583 
	C112.208336,173.063095 104.139931,176.402451 95.806137,178.776123 
	C89.229683,180.649292 80.863770,180.557388 77.370956,175.513840 
	C72.985619,169.181503 74.692589,162.370956 76.881622,156.434097 
	C81.153313,144.848892 87.763618,134.435181 96.317673,125.305382 
	C109.065521,111.699501 122.833405,99.322128 138.544220,89.226974 
	C152.489807,80.266106 167.277420,73.393036 184.078690,71.905037 
	C187.359253,71.614494 189.953293,70.578186 191.991425,67.668320 
	C194.559525,64.001793 195.668457,63.882370 200.231918,65.199364 
	C195.498184,70.299843 189.193832,74.595467 192.213898,82.573792 
	C188.195450,84.140549 184.662628,85.197495 181.428162,86.841423 
	C172.995560,91.127327 168.425644,98.925331 163.909866,106.740784 
	C162.947159,108.406960 161.653122,109.881683 160.511719,111.444611 
	C160.018082,111.227676 159.524429,111.010735 159.030792,110.793793 
	C159.162735,109.479294 158.897537,107.936195 159.498703,106.891777 
	C161.567734,103.297165 164.160385,99.994827 166.110779,96.344566 
	C167.225891,94.257561 167.483444,91.712349 168.127106,89.373444 
	C165.629776,88.952606 162.805038,87.565430 160.692734,88.281082 
	C152.317383,91.118690 144.243347,94.565758 137.185410,100.302673 
	C125.678429,109.655930 115.381157,120.147636 106.570930,131.982971 
	C100.572350,140.041245 94.061073,148.048965 92.802589,158.656204 
	C92.064835,164.874405 95.907806,170.860611 101.711128,170.570099 
	C109.438148,170.183273 117.035126,168.244904 123.497391,163.010010 
	C123.973297,162.849915 124.219040,162.700134 124.464775,162.550339 
	C124.099701,162.357910 123.734627,162.165466 123.234497,161.724808 
	C123.023003,161.304398 122.946556,161.132202 122.870117,160.959991 
	C123.395554,159.814560 123.920990,158.669128 124.938080,157.117188 
	C125.225922,155.670135 125.022102,154.629608 124.818283,153.589081 
	C125.233139,152.841125 125.648010,152.093170 126.615120,151.118378 
	C127.444923,150.261398 127.722488,149.631287 128.000061,149.001175 
	C129.292267,147.899231 130.584473,146.797287 132.498474,146.181793 
	C133.370529,146.952927 133.620758,147.237625 133.870987,147.522308 
z"/>
<path fill="#C7C7C7" opacity="1.000000" stroke="none" 
	d="
M123.267227,163.020309 
	C117.035126,168.244904 109.438148,170.183273 101.711128,170.570099 
	C95.907806,170.860611 92.064835,164.874405 92.802589,158.656204 
	C94.061073,148.048965 100.572350,140.041245 106.570930,131.982971 
	C115.381157,120.147636 125.678429,109.655930 137.185410,100.302673 
	C144.243347,94.565758 152.317383,91.118690 160.692734,88.281082 
	C162.805038,87.565430 165.629776,88.952606 168.127106,89.373444 
	C167.483444,91.712349 167.225891,94.257561 166.110779,96.344566 
	C164.160385,99.994827 161.567734,103.297165 159.498703,106.891777 
	C158.897537,107.936195 159.162735,109.479294 159.030792,110.793793 
	C159.524429,111.010735 160.018082,111.227676 160.511719,111.444611 
	C161.653122,109.881683 162.947159,108.406960 163.909866,106.740784 
	C168.425644,98.925331 172.995560,91.127327 181.428162,86.841423 
	C184.662628,85.197495 188.195450,84.140549 192.213898,82.573792 
	C189.193832,74.595467 195.498184,70.299843 200.231918,65.199364 
	C195.668457,63.882370 194.559525,64.001793 191.991425,67.668320 
	C189.953293,70.578186 187.359253,71.614494 184.078690,71.905037 
	C167.277420,73.393036 152.489807,80.266106 138.544220,89.226974 
	C122.833405,99.322128 109.065521,111.699501 96.317673,125.305382 
	C87.763618,134.435181 81.153313,144.848892 76.881622,156.434097 
	C74.692589,162.370956 72.985619,169.181503 77.370956,175.513840 
	C80.863770,180.557388 89.229683,180.649292 95.806137,178.776123 
	C104.139931,176.402451 112.208336,173.063095 120.313469,169.938583 
	C123.225441,168.816010 125.911781,167.108154 129.245239,165.341827 
	C131.179825,164.666367 132.570267,164.316498 133.960709,163.966614 
	C133.960709,163.966614 133.996353,164.002258 134.204208,164.036652 
	C134.412064,164.071030 134.856354,164.046783 134.857727,164.430145 
	C138.098022,168.134232 136.088776,171.916748 135.816681,175.553238 
	C135.436798,180.630295 137.533020,182.893600 142.438721,182.111496 
	C147.229416,181.347748 151.937668,180.066711 157.309540,178.873367 
	C154.968674,176.670471 153.102203,175.287216 151.714905,173.526443 
	C149.255035,170.404343 150.825714,167.568634 155.048004,167.171448 
	C153.937180,170.177368 154.807602,172.258347 157.420807,174.258682 
	C158.913635,175.401413 160.612671,178.096664 160.183868,179.446426 
	C159.696014,180.982178 157.074081,182.219421 155.140533,182.834686 
	C151.521652,183.986206 147.726349,184.578506 144.011505,185.434174 
	C136.572144,187.147705 131.085419,182.140717 132.176834,174.613617 
	C132.470825,172.586090 132.777023,170.560333 133.103500,168.359238 
	C124.213249,171.913116 116.101357,175.674484 107.650360,178.374481 
	C100.544128,180.644836 93.041389,182.959366 85.717392,182.949188 
	C75.761574,182.935379 71.065620,175.446747 71.643997,165.426361 
	C72.329384,153.552063 78.275238,144.216385 84.567390,134.852249 
	C95.649529,118.359482 110.454651,105.544235 126.021408,93.665283 
	C142.136414,81.367966 159.823471,71.845398 180.183105,68.690353 
	C185.074524,67.932350 188.667740,66.269798 192.087585,62.726959 
	C193.747696,61.007141 197.208054,60.466805 199.870941,60.421452 
	C202.868347,60.370399 204.479706,64.546608 202.769196,67.174889 
	C201.960831,68.416985 200.970932,69.614594 199.834000,70.555199 
	C196.589157,73.239677 194.532181,76.149773 195.778641,80.750031 
	C196.376831,82.957748 196.197495,85.462662 192.937729,86.135384 
	C179.399719,88.929237 171.781219,98.460190 165.988953,110.017067 
	C164.277191,113.432434 162.189987,116.224457 157.893753,113.854523 
	C154.548508,112.009209 154.528656,108.281609 157.318619,104.080482 
	C159.953232,100.113266 162.361816,95.995934 165.426682,91.045135 
	C163.336151,91.318481 162.082260,91.266197 160.987762,91.658585 
	C148.328232,96.197105 137.710968,103.643410 128.075668,113.083664 
	C117.083366,123.853424 107.359306,135.468018 99.796791,148.821472 
	C97.967758,152.051071 96.744873,155.833237 96.158096,159.507416 
	C95.306786,164.838013 99.555794,168.250763 105.199768,166.736069 
	C110.944855,165.194260 116.500908,162.948059 122.504921,160.985138 
	C122.946556,161.132202 123.023003,161.304398 123.146744,161.980560 
	C123.218437,162.663116 123.242828,162.841705 123.267227,163.020309 
z"/>
<path fill="#050505" opacity="1.000000" stroke="none" 
	d="
M155.391479,167.097656 
	C150.825714,167.568634 149.255035,170.404343 151.714905,173.526443 
	C153.102203,175.287216 154.968674,176.670471 157.309540,178.873367 
	C151.937668,180.066711 147.229416,181.347748 142.438721,182.111496 
	C137.533020,182.893600 135.436798,180.630295 135.816681,175.553238 
	C136.088776,171.916748 138.098022,168.134232 135.189026,164.388855 
	C136.103149,163.143707 136.687347,162.323227 137.271561,161.502747 
	C136.514572,161.335373 135.757599,161.167984 135.000610,161.000610 
	C135.000610,161.000610 135.000000,161.000000 135.040024,160.652374 
	C135.781326,159.064087 136.744186,157.889099 137.078751,156.556366 
	C137.258850,155.839035 136.361847,154.851303 135.950821,153.985565 
	C138.697128,151.738037 141.443451,149.490509 144.478699,147.594208 
	C145.258499,148.625153 146.019791,149.954529 146.197052,149.880753 
	C147.501617,149.337769 148.689514,148.514450 150.098190,148.065674 
	C151.184082,147.889984 152.085953,147.428040 153.008392,146.632675 
	C153.700897,145.537842 154.372787,144.776413 155.349808,143.973602 
	C155.676651,143.252365 155.698364,142.572540 155.820160,141.645752 
	C156.230957,141.247040 156.541687,141.095276 157.210724,140.915131 
	C159.307144,138.928772 161.045242,136.970795 162.800018,134.994034 
	C161.705200,134.183990 160.821442,133.530090 159.977875,132.524261 
	C165.340302,126.125641 175.452545,124.735809 179.604034,129.403641 
	C175.389069,134.366730 171.178482,139.324661 166.424561,144.922363 
	C168.760864,144.922363 170.049561,144.922363 171.338257,144.922363 
	C170.149078,147.841995 168.959915,150.761627 167.189682,153.855835 
	C165.820145,154.088531 165.031662,154.146667 164.243195,154.204788 
	C163.845810,155.062973 163.448410,155.921158 162.503891,156.872467 
	C160.662445,154.388565 159.265366,153.485992 157.472275,156.603012 
	C157.156448,157.152054 156.511673,157.511902 156.011932,157.587173 
	C155.336517,156.143585 154.667984,155.071945 153.750488,154.000137 
	C153.501526,153.999969 153.003342,153.999481 152.801514,153.761780 
	C152.084656,153.920929 151.569626,154.317780 151.054611,154.714615 
	C151.693985,155.483170 152.333374,156.251709 152.880310,157.280365 
	C152.955307,158.135910 153.122772,158.731354 153.290222,159.326813 
	C153.528839,158.553238 153.767471,157.779663 154.226913,157.115158 
	C154.721130,157.426926 154.911530,157.689774 155.022156,158.374603 
	C156.001892,159.827011 156.978378,160.917572 158.024078,162.346741 
	C158.533401,163.169540 158.973511,163.653717 159.413605,164.137909 
	C158.187393,165.099899 156.961166,166.061874 155.391479,167.097656 
M148.456818,154.695786 
	C148.402084,154.286133 148.347351,153.876495 148.292618,153.466843 
	C147.865189,153.973755 147.437759,154.480652 147.031982,155.492111 
	C147.180298,155.765305 147.328613,156.038498 147.476944,156.311676 
	C147.661102,155.889130 147.845261,155.466568 148.456818,154.695786 
M159.413559,144.992889 
	C158.901016,145.194962 158.388458,145.397034 157.875916,145.599106 
	C158.110138,145.800583 158.482941,146.216553 158.556320,146.169144 
	C159.074356,145.834381 159.530884,145.404404 160.414520,144.755325 
	C160.399231,144.404892 160.383942,144.054459 160.368637,143.704025 
	C160.243118,144.133377 160.117584,144.562714 159.413559,144.992889 
M163.989044,144.314651 
	C163.663300,143.699524 163.337540,143.084396 163.011795,142.469269 
	C162.728134,142.768951 162.444473,143.068649 162.160812,143.368332 
	C162.775299,143.912827 163.389786,144.457321 163.727737,145.618835 
	C163.462173,146.767487 163.196609,147.916138 162.931046,149.064774 
	C163.014008,147.700821 168.317673,147.016495 163.989044,144.314651 
M150.104965,164.303635 
	C150.197891,164.349716 150.290817,164.395798 150.383743,164.441864 
	C150.266006,164.286499 150.148270,164.131134 150.089554,163.312668 
	C150.185150,162.078293 150.280762,160.843918 150.376358,159.609528 
	C149.956940,159.487885 149.537537,159.366226 149.118118,159.244583 
	C147.066925,161.715759 145.015747,164.186951 142.442474,167.287125 
	C145.609009,165.917358 147.793930,164.972229 150.104965,164.303635 
M170.145386,131.531799 
	C169.861618,132.128876 169.577866,132.725952 169.294113,133.323029 
	C169.527496,133.522568 169.760864,133.722107 169.994247,133.921646 
	C171.241699,133.044128 172.489136,132.166595 173.736588,131.289078 
	C173.621140,131.048645 173.505707,130.808212 173.390274,130.567780 
	C172.493881,130.783203 171.597488,130.998627 170.145386,131.531799 
M144.711807,157.456161 
	C144.599777,158.035553 144.487732,158.614929 144.375687,159.194321 
	C144.786438,159.199356 145.197189,159.204376 145.607941,159.209396 
	C145.510162,158.627228 145.412384,158.045074 144.711807,157.456161 
M165.571671,140.295959 
	C165.295090,140.006210 165.018524,139.716461 164.741943,139.426712 
	C164.622299,139.541153 164.502640,139.655579 164.382996,139.770020 
	C164.659897,140.059479 164.936798,140.348953 165.571671,140.295959 
M142.791702,161.388031 
	C142.787552,161.785324 142.783386,162.182617 142.779236,162.579910 
	C142.944077,162.581375 143.252167,162.593857 143.253036,162.582703 
	C143.283417,162.187744 143.284958,161.790604 142.791702,161.388031 
M154.606567,150.794006 
	C154.205414,150.789505 153.804260,150.785004 153.403107,150.780518 
	C153.401382,150.946976 153.388565,151.258148 153.399506,151.258972 
	C153.798752,151.289566 154.200226,151.291306 154.606567,150.794006 
M167.388046,133.471512 
	C167.116669,133.177505 166.845306,132.883484 166.573929,132.589478 
	C166.470947,132.695312 166.268738,132.881760 166.279602,132.895126 
	C166.519928,133.190964 166.783783,133.467697 167.388046,133.471512 
M139.186707,168.258057 
	C139.027481,168.374023 138.868256,168.489975 138.709030,168.605911 
	C138.930603,168.582230 139.152161,168.558548 139.186707,168.258057 
M139.220367,158.194824 
	C139.405350,158.133347 139.590347,158.071869 139.775345,158.010406 
	C139.589737,157.951279 139.404129,157.892151 139.220367,158.194824 
M141.412155,154.482895 
	C141.412155,154.482895 141.523026,154.416763 141.412155,154.482895 
M168.587997,136.517899 
	C168.587997,136.517899 168.476959,136.584534 168.587997,136.517899 
z"/>
<path fill="#181818" opacity="1.000000" stroke="none" 
	d="
M182.819687,153.768173 
	C181.315872,153.758392 179.312439,153.129761 178.406830,153.860916 
	C176.159683,155.675186 174.084274,157.902237 172.542435,160.343964 
	C170.116180,164.186295 167.574539,165.567993 163.366165,161.975403 
	C162.937119,161.525986 162.954208,161.302521 162.975754,161.079407 
	C165.306076,159.647873 168.239578,158.702545 169.856857,156.696228 
	C175.328232,149.908646 180.199509,142.639359 185.609070,135.798492 
	C186.984177,134.059570 188.770935,131.324722 192.143860,133.621307 
	C192.735947,134.024445 194.748001,132.342133 196.104279,131.622955 
	C196.390594,132.003723 196.676910,132.384506 196.963211,132.765274 
	C192.947037,135.978851 188.876556,139.128082 184.946671,142.443939 
	C183.715286,143.482925 182.862503,144.970642 181.905487,146.610474 
	C181.974579,146.968002 182.038528,146.962479 181.719986,146.837891 
	C180.963989,147.402328 180.526520,148.091324 180.103821,149.125122 
	C181.643707,149.992157 183.168823,150.514420 184.939972,151.120926 
	C184.193695,152.052689 183.506699,152.910431 182.819687,153.768173 
z"/>
<path fill="#C4C4C4" opacity="1.000000" stroke="none" 
	d="
M155.044678,144.014984 
	C154.372787,144.776413 153.700897,145.537842 152.668823,146.677704 
	C151.510483,147.297226 150.712326,147.538315 149.914154,147.779404 
	C148.689514,148.514450 147.501617,149.337769 146.197052,149.880753 
	C146.019791,149.954529 145.258499,148.625153 144.837677,147.623734 
	C148.446869,142.593735 153.142776,138.352234 155.272079,133.075104 
	C159.104935,123.576004 172.170563,121.837929 179.020996,124.182579 
	C184.091141,125.917900 184.647186,129.472717 180.984100,133.491592 
	C177.769287,137.018692 174.860107,140.824387 171.577087,144.714691 
	C170.049561,144.922363 168.760864,144.922363 166.424561,144.922363 
	C171.178482,139.324661 175.389069,134.366730 179.604034,129.403641 
	C175.452545,124.735809 165.340302,126.125641 159.716125,132.722900 
	C158.599121,134.819611 157.784073,136.365753 156.704285,137.994858 
	C156.603439,138.446960 156.767319,138.816101 156.938934,139.480194 
	C156.915237,140.164612 156.883820,140.554077 156.852417,140.943512 
	C156.541687,141.095276 156.230957,141.247040 155.555725,141.798996 
	C155.142380,142.804459 155.093536,143.409714 155.044678,144.014984 
z"/>
<path fill="#1A1A1A" opacity="1.000000" stroke="none" 
	d="
M187.980087,158.093460 
	C190.246399,156.015335 192.384155,153.770111 194.812164,151.902161 
	C197.720566,149.664627 200.246887,146.561615 204.853958,147.808746 
	C206.140030,148.156891 207.972336,146.487152 210.617447,146.330841 
	C207.343735,153.122803 204.070038,159.914764 200.661209,166.987061 
	C199.838287,165.168671 198.824677,162.928894 197.774597,160.608521 
	C194.750580,161.956177 191.697021,163.316986 187.614349,165.136429 
	C188.153458,162.082932 188.478714,160.240677 188.410736,158.234863 
	C188.017487,158.071274 187.980087,158.093460 187.980087,158.093460 
M198.194870,152.766220 
	C197.296646,154.275528 196.398407,155.784836 195.500168,157.294128 
	C196.011536,157.692978 196.522888,158.091827 197.034256,158.490677 
	C198.941086,156.300934 200.847900,154.111191 202.754730,151.921448 
	C202.631287,151.629868 202.507858,151.338287 202.384430,151.046707 
	C201.176849,151.459778 199.969284,151.872849 198.194870,152.766220 
z"/>
<path fill="#1F1F1F" opacity="1.000000" stroke="none" 
	d="
M219.983734,150.656708 
	C222.775681,150.150208 225.567642,149.643723 228.377335,149.134003 
	C228.860611,158.615768 224.256378,164.338760 216.004471,164.147995 
	C217.800430,161.887543 219.527802,159.869797 221.049438,157.707275 
	C221.535004,157.017197 221.474670,155.942993 221.664108,155.044540 
	C220.644638,155.092514 219.625153,155.140472 218.158981,155.256683 
	C218.469421,153.768875 219.226578,152.212784 219.983734,150.656708 
M221.962570,153.590042 
	C221.730423,153.519394 221.498291,153.448746 221.266144,153.378082 
	C221.345490,153.596725 221.424850,153.815369 221.962570,153.590042 
z"/>
<path fill="#181818" opacity="1.000000" stroke="none" 
	d="
M220.304733,150.371887 
	C219.226578,152.212784 218.469421,153.768875 217.837677,155.584229 
	C215.090302,159.239243 212.217514,162.634964 208.728195,166.759476 
	C206.809814,157.447784 213.612717,148.630157 222.864532,147.382736 
	C221.862518,148.593109 221.244125,149.340103 220.304733,150.371887 
z"/>
<path fill="#151515" opacity="1.000000" stroke="none" 
	d="
M182.517242,154.005814 
	C183.506699,152.910431 184.193695,152.052689 184.939972,151.120926 
	C183.168823,150.514420 181.643707,149.992157 180.478424,149.157684 
	C181.238358,148.217804 181.638443,147.590134 182.038528,146.962479 
	C182.038528,146.962479 181.974579,146.968002 181.944977,146.977402 
	C184.572479,146.658905 187.229584,146.331024 191.196487,145.841507 
	C189.694183,148.735855 188.287491,150.942276 187.405502,153.341599 
	C186.907822,154.695450 187.273911,156.366852 187.615509,157.994324 
	C187.980087,158.093460 188.017487,158.071274 188.023315,158.051315 
	C187.370880,157.831451 186.487701,157.254196 186.089890,157.491287 
	C182.894897,159.395477 179.791458,161.453293 176.660004,163.464127 
	C176.316101,163.121613 175.972198,162.779099 175.628296,162.436584 
	C177.823807,159.705536 180.019302,156.974487 182.517242,154.005814 
z"/>
<path fill="#0F0F0F" opacity="1.000000" stroke="none" 
	d="
M157.954865,162.008118 
	C156.978378,160.917572 156.001892,159.827011 155.272202,158.364716 
	C155.685593,157.981705 155.852203,157.970413 156.018829,157.959122 
	C156.511673,157.511902 157.156448,157.152054 157.472275,156.603012 
	C159.265366,153.485992 160.662445,154.388565 162.257202,157.133209 
	C162.323257,158.052887 162.088913,158.804947 161.273239,159.816666 
	C160.108368,160.725937 159.524811,161.375565 158.694672,162.020706 
	C158.448074,162.016220 157.954865,162.008118 157.954865,162.008118 
M159.420425,156.478943 
	C159.420425,156.478943 159.528671,156.418121 159.420425,156.478943 
z"/>
<path fill="#121212" opacity="1.000000" stroke="none" 
	d="
M135.761658,154.223221 
	C136.361847,154.851303 137.258850,155.839035 137.078751,156.556366 
	C136.744186,157.889099 135.781326,159.064087 135.040329,160.652969 
	C130.811172,159.045654 135.513718,157.014328 134.962036,154.691177 
	C135.173752,154.389954 135.373123,154.425415 135.761658,154.223221 
z"/>
<path fill="#050505" opacity="1.000000" stroke="none" 
	d="
M158.941269,162.025192 
	C159.524811,161.375565 160.108368,160.725937 160.991119,160.094788 
	C161.656586,160.334595 162.022812,160.555923 162.682404,160.928345 
	C162.954208,161.302521 162.937119,161.525986 162.945648,161.916595 
	C162.273254,162.444595 161.579666,162.805771 160.388580,162.982300 
	C159.574463,162.540146 159.257874,162.282669 158.941269,162.025192 
z"/>
<path fill="#121212" opacity="1.000000" stroke="none" 
	d="
M124.551910,153.709473 
	C125.022102,154.629608 125.225922,155.670135 125.175491,156.821320 
	C124.709343,155.897919 124.497437,154.863892 124.551910,153.709473 
z"/>
<path fill="#0F0F0F" opacity="1.000000" stroke="none" 
	d="
M164.501068,154.385101 
	C165.031662,154.146667 165.820145,154.088531 166.908936,154.057266 
	C166.392487,154.244568 165.575729,154.404999 164.501068,154.385101 
z"/>
<path fill="#121212" opacity="1.000000" stroke="none" 
	d="
M132.628983,145.598038 
	C133.184158,145.649872 133.739349,145.701691 133.805634,145.827789 
	C133.087479,145.800720 132.858231,145.699371 132.628983,145.598038 
z"/>
<path fill="#121212" opacity="1.000000" stroke="none" 
	d="
M131.082153,151.564758 
	C131.195480,151.195389 131.473221,150.652222 131.980682,150.035156 
	C131.889130,150.437820 131.567841,150.914383 131.082153,151.564758 
z"/>
<path fill="#181818" opacity="1.000000" stroke="none" 
	d="
M158.694672,162.020706 
	C159.257874,162.282669 159.574463,162.540146 160.009140,163.083405 
	C160.203690,163.683624 160.104614,163.926437 159.621780,164.117767 
	C158.973511,163.653717 158.533401,163.169540 158.024078,162.346741 
	C157.954865,162.008118 158.448074,162.016220 158.694672,162.020706 
z"/>
<path fill="#121212" opacity="1.000000" stroke="none" 
	d="
M127.737717,149.061798 
	C127.722488,149.631287 127.444923,150.261398 126.902390,150.964783 
	C126.916740,150.399490 127.196053,149.760971 127.737717,149.061798 
z"/>
<path fill="#050505" opacity="1.000000" stroke="none" 
	d="
M132.660858,145.621414 
	C132.858231,145.699371 133.087479,145.800720 133.688187,145.960327 
	C134.149826,146.245102 134.262344,146.466064 134.320511,146.700531 
	C134.348328,146.812668 134.273056,146.950378 134.057739,147.299408 
	C133.620758,147.237625 133.370529,146.952927 132.870758,146.155365 
	C132.621201,145.642471 132.692749,145.644791 132.660858,145.621414 
z"/>
<path fill="#121212" opacity="1.000000" stroke="none" 
	d="
M130.025635,162.991989 
	C129.672318,162.053604 129.318985,161.115234 128.965668,160.176849 
	C129.973343,160.565414 130.981018,160.953964 131.741943,161.773834 
	C131.005325,162.467422 130.515488,162.729706 130.025635,162.991989 
z"/>
<path fill="#141414" opacity="1.000000" stroke="none" 
	d="
M129.902802,163.254242 
	C130.515488,162.729706 131.005325,162.467422 131.753494,162.099030 
	C132.504868,162.545837 132.997910,163.098770 133.725830,163.809143 
	C132.570267,164.316498 131.179825,164.666367 129.405121,165.038605 
	C129.273895,164.546143 129.526932,164.031326 129.902802,163.254242 
z"/>
<path fill="#141414" opacity="1.000000" stroke="none" 
	d="
M134.981842,161.317017 
	C135.757599,161.167984 136.514572,161.335373 137.271561,161.502747 
	C136.687347,162.323227 136.103149,163.143707 135.187653,164.005493 
	C134.856354,164.046783 134.412064,164.071030 134.197449,164.012451 
	C134.309586,163.180389 134.636337,162.406906 134.981842,161.317017 
z"/>
<path fill="#121212" opacity="1.000000" stroke="none" 
	d="
M123.497391,163.010010 
	C123.242828,162.841705 123.218437,162.663116 123.281799,162.228790 
	C123.734627,162.165466 124.099701,162.357910 124.464775,162.550339 
	C124.219040,162.700134 123.973297,162.849915 123.497391,163.010010 
z"/>
<path fill="#0F0F0F" opacity="1.000000" stroke="none" 
	d="
M149.978851,164.027100 
	C147.793930,164.972229 145.609009,165.917358 142.442474,167.287125 
	C145.015747,164.186951 147.066925,161.715759 149.118118,159.244583 
	C149.537537,159.366226 149.956940,159.487885 150.376358,159.609528 
	C150.280762,160.843918 150.185150,162.078293 150.045868,163.655853 
	C150.002167,163.999023 149.978851,164.027100 149.978851,164.027100 
z"/>
<path fill="#0A0A0A" opacity="1.000000" stroke="none" 
	d="
M156.969025,137.911880 
	C157.784073,136.365753 158.599121,134.819611 159.675903,133.074829 
	C160.821442,133.530090 161.705200,134.183990 162.800018,134.994034 
	C161.045242,136.970795 159.307144,138.928772 157.210724,140.915146 
	C156.883820,140.554077 156.915237,140.164612 156.963959,139.162109 
	C156.977188,138.336670 156.973099,138.124268 156.969025,137.911880 
z"/>
<path fill="#0A0A0A" opacity="1.000000" stroke="none" 
	d="
M170.423248,131.372925 
	C171.597488,130.998627 172.493881,130.783203 173.390274,130.567780 
	C173.505707,130.808212 173.621140,131.048645 173.736588,131.289078 
	C172.489136,132.166595 171.241699,133.044128 169.994247,133.921646 
	C169.760864,133.722107 169.527496,133.522568 169.294113,133.323029 
	C169.577866,132.725952 169.861618,132.128876 170.423248,131.372925 
z"/>
<path fill="#0F0F0F" opacity="1.000000" stroke="none" 
	d="
M164.001312,145.004272 
	C168.317673,147.016495 163.014008,147.700821 162.931046,149.064774 
	C163.196609,147.916138 163.462173,146.767487 163.863861,145.309418 
	C164.000000,145.000000 164.001312,145.004272 164.001312,145.004272 
z"/>
<path fill="#0A0A0A" opacity="1.000000" stroke="none" 
	d="
M152.972748,157.020264 
	C152.333374,156.251709 151.693985,155.483170 151.054611,154.714615 
	C151.569626,154.317780 152.084656,153.920929 152.800018,154.136993 
	C153.000549,155.499619 153.000732,156.249344 152.995880,157.003082 
	C152.990860,157.007080 152.972748,157.020264 152.972748,157.020264 
z"/>
<path fill="#0A0A0A" opacity="1.000000" stroke="none" 
	d="
M156.011932,157.587173 
	C155.852203,157.970413 155.685593,157.981705 155.268951,158.002869 
	C154.911530,157.689774 154.721130,157.426926 154.223969,157.112213 
	C154.000198,157.000198 153.999786,156.999786 153.999817,156.624847 
	C153.999710,155.500031 153.999588,154.750168 153.999451,154.000305 
	C154.667984,155.071945 155.336517,156.143585 156.011932,157.587173 
z"/>
<path fill="#0A0A0A" opacity="1.000000" stroke="none" 
	d="
M164.002136,145.000916 
	C163.389786,144.457321 162.775299,143.912827 162.160812,143.368332 
	C162.444473,143.068649 162.728134,142.768951 163.011795,142.469269 
	C163.337540,143.084396 163.663300,143.699524 163.995178,144.659454 
	C164.001312,145.004272 164.000000,145.000000 164.002136,145.000916 
z"/>
<path fill="#0A0A0A" opacity="1.000000" stroke="none" 
	d="
M145.013214,157.459534 
	C145.412384,158.045074 145.510162,158.627228 145.607941,159.209396 
	C145.197189,159.204376 144.786438,159.199356 144.375687,159.194321 
	C144.487732,158.614929 144.599777,158.035553 145.013214,157.459534 
z"/>
<path fill="#0A0A0A" opacity="1.000000" stroke="none" 
	d="
M150.098190,148.065674 
	C150.712326,147.538315 151.510483,147.297226 152.648224,147.011108 
	C152.085953,147.428040 151.184082,147.889984 150.098190,148.065674 
z"/>
<path fill="#0A0A0A" opacity="1.000000" stroke="none" 
	d="
M155.349808,143.973602 
	C155.093536,143.409714 155.142380,142.804459 155.455658,142.045944 
	C155.698364,142.572540 155.676651,143.252365 155.349808,143.973602 
z"/>
<path fill="#0A0A0A" opacity="1.000000" stroke="none" 
	d="
M154.003143,157.003143 
	C153.767471,157.779663 153.528839,158.553238 153.290222,159.326813 
	C153.122772,158.731354 152.955307,158.135910 152.880310,157.280365 
	C152.972748,157.020264 152.990860,157.007080 153.245483,157.003464 
	C153.500122,156.999847 153.999786,156.999786 153.999786,156.999786 
	C153.999786,156.999786 154.000198,157.000198 154.003143,157.003143 
z"/>
<path fill="#0A0A0A" opacity="1.000000" stroke="none" 
	d="
M165.392700,140.467194 
	C164.936798,140.348953 164.659897,140.059479 164.382996,139.770020 
	C164.502640,139.655579 164.622299,139.541153 164.741943,139.426712 
	C165.018524,139.716461 165.295090,140.006210 165.392700,140.467194 
z"/>
<path fill="#070707" opacity="1.000000" stroke="none" 
	d="
M143.041138,161.390900 
	C143.284958,161.790604 143.283417,162.187744 143.253036,162.582703 
	C143.252167,162.593857 142.944077,162.581375 142.779236,162.579910 
	C142.783386,162.182617 142.787552,161.785324 143.041138,161.390900 
z"/>
<path fill="#0A0A0A" opacity="1.000000" stroke="none" 
	d="
M160.007065,145.004822 
	C159.530884,145.404404 159.074356,145.834381 158.556320,146.169144 
	C158.482941,146.216553 158.110138,145.800583 157.875916,145.599106 
	C158.388458,145.397034 158.901016,145.194962 159.706635,144.996307 
	C159.999695,144.999741 160.007065,145.004837 160.007065,145.004822 
z"/>
<path fill="#070707" opacity="1.000000" stroke="none" 
	d="
M147.010315,154.987549 
	C147.437759,154.480652 147.865189,153.973755 148.292603,153.466843 
	C148.347351,153.876495 148.402084,154.286133 147.988495,154.849716 
	C147.350235,154.998291 147.180283,154.992920 147.010315,154.987549 
z"/>
<path fill="#0A0A0A" opacity="1.000000" stroke="none" 
	d="
M154.603973,151.045502 
	C154.200226,151.291306 153.798752,151.289566 153.399506,151.258972 
	C153.388565,151.258148 153.401382,150.946976 153.403107,150.780518 
	C153.804260,150.785004 154.205414,150.789505 154.603973,151.045502 
z"/>
<path fill="#070707" opacity="1.000000" stroke="none" 
	d="
M153.999817,156.624847 
	C153.999786,156.999786 153.500122,156.999847 153.250519,156.999466 
	C153.000732,156.249344 153.000549,155.499619 153.001862,154.374680 
	C153.003342,153.999481 153.501526,153.999969 153.750488,154.000137 
	C153.999588,154.750168 153.999710,155.500031 153.999817,156.624847 
z"/>
<path fill="#0A0A0A" opacity="1.000000" stroke="none" 
	d="
M167.215607,133.609787 
	C166.783783,133.467697 166.519928,133.190964 166.279602,132.895126 
	C166.268738,132.881760 166.470947,132.695312 166.573929,132.589478 
	C166.845306,132.883484 167.116669,133.177505 167.215607,133.609787 
z"/>
<path fill="#070707" opacity="1.000000" stroke="none" 
	d="
M139.280212,168.396454 
	C139.152161,168.558548 138.930603,168.582230 138.709030,168.605927 
	C138.868256,168.489975 139.027481,168.374023 139.280212,168.396454 
z"/>
<path fill="#0A0A0A" opacity="1.000000" stroke="none" 
	d="
M159.995880,144.995911 
	C160.117584,144.562714 160.243118,144.133377 160.368652,143.704025 
	C160.383942,144.054459 160.399231,144.404892 160.210785,144.880081 
	C160.007065,145.004837 159.999695,144.999741 159.995880,144.995911 
z"/>
<path fill="#121212" opacity="1.000000" stroke="none" 
	d="
M139.219452,158.013916 
	C139.404129,157.892151 139.589737,157.951279 139.775345,158.010406 
	C139.590347,158.071869 139.405350,158.133347 139.219452,158.013916 
z"/>
<path fill="#0A0A0A" opacity="1.000000" stroke="none" 
	d="
M147.021149,155.239838 
	C147.180283,154.992920 147.350235,154.998291 147.774796,155.023834 
	C147.845261,155.466568 147.661102,155.889130 147.476944,156.311676 
	C147.328613,156.038498 147.180298,155.765305 147.021149,155.239838 
z"/>
<path fill="#070707" opacity="1.000000" stroke="none" 
	d="
M141.467590,154.449829 
	C141.523026,154.416763 141.412155,154.482895 141.467590,154.449829 
z"/>
<path fill="#0F0F0F" opacity="1.000000" stroke="none" 
	d="
M150.016357,163.987396 
	C150.148270,164.131134 150.266006,164.286499 150.383743,164.441864 
	C150.290817,164.395798 150.197891,164.349716 150.041901,164.165375 
	C149.978851,164.027100 150.002167,163.999023 150.016357,163.987396 
z"/>
<path fill="#0A0A0A" opacity="1.000000" stroke="none" 
	d="
M168.532471,136.551208 
	C168.476959,136.584534 168.587997,136.517899 168.532471,136.551208 
z"/>
<path fill="#FFFFFF" opacity="1.000000" stroke="none" 
	d="
M181.719986,146.837891 
	C181.638443,147.590134 181.238358,148.217804 180.463684,148.812897 
	C180.526520,148.091324 180.963989,147.402328 181.719986,146.837891 
z"/>
<path fill="#050505" opacity="1.000000" stroke="none" 
	d="
M156.704285,137.994858 
	C156.973099,138.124268 156.977188,138.336670 156.956238,138.867157 
	C156.767319,138.816101 156.603439,138.446960 156.704285,137.994858 
z"/>
<path fill="#C3C3C3" opacity="1.000000" stroke="none" 
	d="
M198.478302,152.526062 
	C199.969284,151.872849 201.176849,151.459778 202.384430,151.046707 
	C202.507858,151.338287 202.631287,151.629868 202.754730,151.921448 
	C200.847900,154.111191 198.941086,156.300934 197.034256,158.490677 
	C196.522888,158.091827 196.011536,157.692978 195.500168,157.294128 
	C196.398407,155.784836 197.296646,154.275528 198.478302,152.526062 
z"/>
<path fill="#FFFFFF" opacity="1.000000" stroke="none" 
	d="
M221.733383,153.812027 
	C221.424850,153.815369 221.345490,153.596725 221.266144,153.378082 
	C221.498291,153.448746 221.730423,153.519394 221.733383,153.812027 
z"/>
<path fill="#050505" opacity="1.000000" stroke="none" 
	d="
M159.474548,156.448532 
	C159.528671,156.418121 159.420425,156.478943 159.474548,156.448532 
z"/>
</svg>